<svg width="184" height="39" viewBox="0 0 184 39" fill="none" xmlns="http://www.w3.org/2000/svg">
<path d="M18.8008 0.200195C20.8008 0.200195 22.7008 0.200195 24.7008 0.200195C24.7008 2.2002 24.7008 4.1002 24.7008 6.1002C23.8008 3.1002 21.9008 1.1002 18.8008 0.200195Z" fill="#F37121"/>
<path d="M6 22.9001C4.2 21.9001 2.7 20.4001 1.6 18.6001C0.5 16.8001 0 14.6001 0 12.3001C0 10.0001 0.5 7.90007 1.6 6.10007C2.7 4.30007 4.2 2.80007 6 1.80007C7.8 0.800073 9.9 0.200073 12.1 0.200073C14.3 0.200073 16.4 0.700073 18.2 1.80007C20 2.80007 21.5 4.30007 22.6 6.10007C23.7 7.90007 24.2 10.0001 24.2 12.3001C24.2 14.6001 23.7 16.7001 22.6 18.5001C21.5 20.3001 20.1 21.8001 18.2 22.8001C16.4 23.8001 14.3 24.4001 12.1 24.4001C9.9 24.4001 7.9 23.9001 6 22.9001ZM15.9 19.2001C17 18.6001 17.8 17.6001 18.4 16.4001C19 15.2001 19.3 13.8001 19.3 12.2001C19.3 10.6001 19 9.20007 18.4 8.10007C17.8 6.90007 16.9 6.00007 15.9 5.40007C14.8 4.80007 13.6 4.50007 12.1 4.50007C10.6 4.50007 9.4 4.80007 8.3 5.40007C7.2 6.10007 6.4 7.00007 5.8 8.20007C5.2 9.40007 4.9 10.8001 4.9 12.3001C4.9 13.8001 5.2 15.3001 5.8 16.5001C6.4 17.7001 7.3 18.6001 8.4 19.3001C9.5 19.9001 10.7 20.3001 12.2 20.3001C13.7 20.3001 14.8 19.9001 15.9 19.2001Z" fill="#FFF6ED"/>
<path d="M45.5984 11.4001C44.9984 12.5001 43.9984 13.4001 42.6984 14.1001C41.3984 14.8001 39.7984 15.1001 37.7984 15.1001H33.6984V24.4001H28.8984V0.200073H37.7984C39.6984 0.200073 41.2984 0.500073 42.5984 1.20007C43.8984 1.80007 44.8984 2.70007 45.5984 3.90007C46.2984 5.00007 46.5984 6.30007 46.5984 7.70007C46.4984 9.00007 46.1984 10.2001 45.5984 11.4001ZM40.5984 10.3001C41.1984 9.70007 41.5984 8.80007 41.5984 7.70007C41.5984 5.30007 40.2984 4.20007 37.6984 4.20007H33.8984V11.2001H37.6984C38.8984 11.2001 39.8984 10.9001 40.5984 10.3001Z" fill="#FFF6ED"/>
<path d="M69.8008 0.200073V24.3001H65.0008V14.1001H54.6008V24.4001H49.8008V0.200073H54.6008V10.1001H65.0008V0.200073H69.8008Z" fill="#FFF6ED"/>
<path d="M79.6016 22.8001C77.8016 21.8001 76.3016 20.3001 75.2016 18.5001C74.1016 16.7001 73.6016 14.6001 73.6016 12.3001C73.6016 10.0001 74.1016 7.90007 75.2016 6.10007C76.3016 4.30007 77.7016 2.80007 79.6016 1.80007C81.4016 0.800073 83.5016 0.200073 85.7016 0.200073C87.9016 0.200073 90.0016 0.700073 91.8016 1.80007C93.6016 2.80007 95.1016 4.30007 96.2016 6.10007C97.3016 7.90007 97.8016 10.0001 97.8016 12.3001C97.8016 14.6001 97.3016 16.7001 96.2016 18.5001C95.1016 20.3001 93.7016 21.8001 91.8016 22.8001C90.0016 23.8001 87.9016 24.4001 85.7016 24.4001C83.4016 24.4001 81.4016 23.9001 79.6016 22.8001ZM89.4016 19.2001C90.5016 18.6001 91.3016 17.6001 91.9016 16.4001C92.5016 15.2001 92.8016 13.8001 92.8016 12.2001C92.8016 10.6001 92.5016 9.20007 91.9016 8.10007C91.3016 6.90007 90.4016 6.00007 89.4016 5.40007C88.3016 4.80007 87.1016 4.50007 85.7016 4.50007C84.3016 4.50007 83.0016 4.80007 81.9016 5.40007C80.8016 6.00007 80.0016 6.90007 79.4016 8.10007C78.8016 9.30007 78.5016 10.7001 78.5016 12.2001C78.5016 13.7001 78.8016 15.2001 79.4016 16.4001C80.0016 17.6001 80.9016 18.5001 81.9016 19.2001C83.0016 19.8001 84.2016 20.2001 85.7016 20.2001C87.2016 20.2001 88.3016 19.8001 89.4016 19.2001Z" fill="#FFF6ED"/>
<path d="M12.3008 14.8004C10.9008 14.8004 9.80078 13.7004 9.80078 12.3004C9.80078 10.9004 10.9008 9.90039 12.3008 9.90039C13.6008 9.90039 14.7008 11.0004 14.7008 12.4004C14.7008 13.7004 13.6008 14.8004 12.3008 14.8004Z" fill="#F37121"/>
<path d="M117.999 0.3V2.3H111.299V24.5H108.899V2.3H102.199V0.3H117.999Z" fill="white"/>
<path d="M124.298 2.2002V11.2002H133.498V13.2002H124.298V22.4002H134.498V24.4002H121.898V0.200195H134.498V2.2002H124.298Z" fill="white"/>
<path d="M139.702 6C140.702 4.1 142.202 2.7 144.002 1.6C145.802 0.6 147.802 0 150.002 0C152.702 0 155.002 0.6 156.902 1.9C158.802 3.2 160.202 5 161.102 7.3H158.302C157.602 5.7 156.602 4.4 155.102 3.5C153.602 2.6 152.002 2.1 150.002 2.1C148.202 2.1 146.602 2.5 145.202 3.3C143.802 4.1 142.702 5.3 141.902 6.9C141.102 8.5 140.702 10.3 140.702 12.3C140.702 14.4 141.102 16.1 141.902 17.7C142.702 19.3 143.802 20.4 145.202 21.3C146.602 22.1 148.202 22.5 150.002 22.5C152.002 22.5 153.702 22 155.102 21.1C156.502 20.2 157.602 18.9 158.302 17.3H161.102C160.202 19.6 158.802 21.4 156.902 22.7C155.002 24 152.702 24.6 150.002 24.6C147.802 24.6 145.802 24.1 144.002 23C142.202 22 140.802 20.5 139.702 18.6C138.702 16.7 138.102 14.6 138.102 12.2C138.202 10 138.702 7.8 139.702 6Z" fill="white"/>
<path d="M183.798 0.299805V24.4998H181.398V13.0998H168.298V24.3998H165.898V0.299805H168.298V11.1998H181.398V0.299805H183.798Z" fill="white"/>
<path d="M0.700781 32.3004C1.00078 31.8004 1.40078 31.4004 1.90078 31.1004C2.40078 30.8004 2.90078 30.7004 3.50078 30.7004C4.20078 30.7004 4.90078 30.9004 5.40078 31.2004C5.90078 31.5004 6.30078 32.0004 6.50078 32.7004H5.80078C5.60078 32.3004 5.30078 31.9004 4.90078 31.7004C4.50078 31.4004 4.00078 31.3004 3.50078 31.3004C3.00078 31.3004 2.60078 31.4004 2.20078 31.6004C1.80078 31.8004 1.50078 32.2004 1.30078 32.6004C1.10078 33.0004 1.00078 33.5004 1.00078 34.1004C1.00078 34.7004 1.10078 35.2004 1.30078 35.6004C1.50078 36.0004 1.80078 36.3004 2.20078 36.6004C2.60078 36.9004 3.00078 36.9004 3.50078 36.9004C4.00078 36.9004 4.50078 36.8004 4.90078 36.5004C5.30078 36.3004 5.60078 35.9004 5.80078 35.5004H6.60078C6.40078 36.1004 6.00078 36.6004 5.40078 37.0004C4.90078 37.3004 4.20078 37.5004 3.50078 37.5004C2.90078 37.5004 2.30078 37.4004 1.90078 37.1004C1.40078 36.8004 1.00078 36.4004 0.700781 35.9004C0.400781 35.4004 0.300781 34.8004 0.300781 34.2004C0.300781 33.4004 0.400781 32.9004 0.700781 32.3004Z" fill="white"/>
<path d="M10.9008 37.0008C10.4008 36.7008 10.0008 36.3008 9.70078 35.8008C9.40078 35.3008 9.30078 34.7008 9.30078 34.1008C9.30078 33.5008 9.40078 32.9008 9.70078 32.4008C10.0008 31.9008 10.4008 31.5008 10.9008 31.2008C11.4008 30.9008 12.0008 30.8008 12.6008 30.8008C13.2008 30.8008 13.8008 30.9008 14.3008 31.2008C14.8008 31.5008 15.2008 31.9008 15.5008 32.4008C15.8008 32.9008 15.9008 33.5008 15.9008 34.1008C15.9008 34.7008 15.8008 35.3008 15.5008 35.8008C15.2008 36.3008 14.8008 36.7008 14.3008 37.0008C13.8008 37.3008 13.2008 37.4008 12.6008 37.4008C11.9008 37.5008 11.4008 37.3008 10.9008 37.0008ZM13.8008 36.5008C14.2008 36.3008 14.5008 35.9008 14.7008 35.5008C14.9008 35.1008 15.0008 34.6008 15.0008 34.0008C15.0008 33.4008 15.0008 33.0008 14.8008 32.6008C14.6008 32.2008 14.3008 31.9008 13.9008 31.6008C13.5008 31.4008 13.1008 31.3008 12.6008 31.3008C12.1008 31.3008 11.7008 31.4008 11.3008 31.6008C10.9008 31.8008 10.6008 32.2008 10.4008 32.6008C10.2008 33.0008 10.1008 33.5008 10.1008 34.1008C10.1008 34.7008 10.2008 35.2008 10.4008 35.6008C10.6008 36.0008 10.9008 36.4008 11.3008 36.6008C11.7008 36.8008 12.1008 36.9008 12.6008 36.9008C13.0008 36.9008 13.5008 36.8008 13.8008 36.5008Z" fill="white"/>
<path d="M23.7016 37.4008H23.0016L19.3016 31.9008V37.4008H18.6016V30.8008H19.3016L23.0016 36.3008V30.8008H23.7016V37.4008Z" fill="white"/>
<path d="M31.8031 37.4008H31.1031L27.4031 31.9008V37.4008H26.7031V30.8008H27.4031L31.1031 36.3008V30.8008H31.8031V37.4008Z" fill="white"/>
<path d="M35.7 33.8002H38.2V34.3002H35.7V36.8002H38.5V37.3002H35V30.7002H38.4V31.2002H35.7V33.8002Z" fill="white"/>
<path d="M41.6016 32.3002C41.9016 31.8002 42.3016 31.4002 42.8016 31.1002C43.3016 30.8002 43.8016 30.7002 44.4016 30.7002C45.1016 30.7002 45.8016 30.9002 46.3016 31.2002C46.8016 31.5002 47.2016 32.0002 47.4016 32.7002H46.6016C46.4016 32.3002 46.1016 31.9002 45.7016 31.7002C45.3016 31.4002 44.8016 31.3002 44.3016 31.3002C43.8016 31.3002 43.4016 31.4002 43.0016 31.6002C42.6016 31.8002 42.3016 32.2002 42.1016 32.6002C41.9016 33.0002 41.8016 33.5002 41.8016 34.1002C41.8016 34.7002 41.9016 35.2002 42.1016 35.6002C42.3016 36.0002 42.6016 36.3002 43.0016 36.6002C43.4016 36.9002 43.8016 36.9002 44.3016 36.9002C44.8016 36.9002 45.3016 36.8002 45.7016 36.5002C46.1016 36.3002 46.4016 35.9002 46.6016 35.5002H47.4016C47.2016 36.1002 46.8016 36.6002 46.2016 37.0002C45.7016 37.3002 45.0016 37.5002 44.3016 37.5002C43.7016 37.5002 43.1016 37.4002 42.7016 37.1002C42.2016 36.8002 41.8016 36.4002 41.5016 35.9002C41.2016 35.4002 41.1016 34.8002 41.1016 34.2002C41.2016 33.4002 41.3016 32.9002 41.6016 32.3002Z" fill="white"/>
<path d="M54.3 30.8008V31.3008H52.5V37.3008H51.8V31.3008H50V30.8008H54.3Z" fill="white"/>
<path d="M66.4031 38.3004H65.7031V29.9004H66.4031V38.3004Z" fill="white"/>
<path d="M78.5 32.3002C78.8 31.8002 79.2 31.4002 79.7 31.1002C80.2 30.8002 80.7 30.7002 81.3 30.7002C82 30.7002 82.7 30.9002 83.2 31.2002C83.7 31.5002 84.1 32.0002 84.3 32.7002H83.5C83.3 32.3002 83 31.9002 82.6 31.7002C82.2 31.4002 81.7 31.3002 81.2 31.3002C80.7 31.3002 80.3 31.4002 79.9 31.6002C79.5 31.8002 79.2 32.2002 79 32.6002C78.8 33.0002 78.7 33.5002 78.7 34.1002C78.7 34.7002 78.8 35.2002 79 35.6002C79.2 36.0002 79.5 36.3002 79.9 36.6002C80.3 36.9002 80.7 36.9002 81.2 36.9002C81.7 36.9002 82.2 36.8002 82.6 36.5002C83 36.3002 83.3 35.9002 83.5 35.5002H84.3C84.1 36.1002 83.7 36.6002 83.1 37.0002C82.6 37.3002 81.9 37.5002 81.2 37.5002C80.6 37.5002 80 37.4002 79.6 37.1002C79.1 36.8002 78.7 36.4002 78.4 35.9002C78.1 35.4002 78 34.8002 78 34.2002C78.1 33.4002 78.2 32.9002 78.5 32.3002Z" fill="white"/>
<path d="M90.8008 37.4008L89.2008 34.6008H88.0008V37.4008H87.3008V30.8008H89.3008C90.0008 30.8008 90.6008 31.0008 91.0008 31.3008C91.4008 31.7008 91.6008 32.1008 91.6008 32.7008C91.6008 33.2008 91.5008 33.6008 91.2008 33.9008C90.9008 34.2008 90.5008 34.5008 90.0008 34.6008L91.7008 37.4008H90.8008ZM88.0008 34.1008H89.3008C89.8008 34.1008 90.2008 34.0008 90.5008 33.7008C90.8008 33.4008 90.9008 33.1008 90.9008 32.7008C90.9008 32.3008 90.8008 31.9008 90.5008 31.7008C90.2008 31.5008 89.9008 31.3008 89.3008 31.3008H88.0008V34.1008Z" fill="white"/>
<path d="M95.2016 33.8002H97.7016V34.3002H95.2016V36.8002H98.0016V37.3002H94.6016V30.7002H98.0016V31.2002H95.2016V33.8002Z" fill="white"/>
<path d="M104.8 35.8004H101.8L101.2 37.4004H100.5L102.9 30.9004H103.6L106 37.4004H105.3L104.8 35.8004ZM104.6 35.3004L103.3 31.7004L102 35.3004H104.6Z" fill="white"/>
<path d="M112.698 30.8008V31.3008H110.898V37.3008H110.198V31.3008H108.398V30.8008H112.698Z" fill="white"/>
<path d="M116.1 33.8002H118.6V34.3002H116.1V36.8002H118.9V37.3002H115.5V30.7002H118.9V31.2002H116.1V33.8002Z" fill="white"/>
<path d="M131.302 38.3004H130.602V29.9004H131.302V38.3004Z" fill="white"/>
<path d="M143.901 33.8004H146.401V34.3004H143.901V36.8004H146.701V37.3004H143.301V30.7004H146.701V31.2004H143.901V33.8004Z" fill="white"/>
<path d="M154.902 30.8008L152.402 37.4008H151.602L149.102 30.8008H149.802L152.002 36.7008L154.202 30.8008H154.902Z" fill="white"/>
<path d="M158.901 37.0008C158.401 36.7008 158.001 36.3008 157.701 35.8008C157.401 35.3008 157.301 34.7008 157.301 34.1008C157.301 33.5008 157.401 32.9008 157.701 32.4008C158.001 31.9008 158.401 31.5008 158.901 31.2008C159.401 30.9008 160.001 30.8008 160.601 30.8008C161.201 30.8008 161.801 30.9008 162.301 31.2008C162.801 31.5008 163.201 31.9008 163.501 32.4008C163.801 32.9008 163.901 33.5008 163.901 34.1008C163.901 34.7008 163.801 35.3008 163.501 35.8008C163.201 36.3008 162.801 36.7008 162.301 37.0008C161.801 37.3008 161.201 37.4008 160.601 37.4008C159.901 37.5008 159.401 37.3008 158.901 37.0008ZM161.901 36.5008C162.301 36.3008 162.601 35.9008 162.801 35.5008C163.001 35.1008 163.101 34.6008 163.101 34.0008C163.101 33.4008 163.001 32.9008 162.801 32.5008C162.601 32.1008 162.301 31.8008 161.901 31.5008C161.501 31.3008 161.101 31.2008 160.601 31.2008C160.101 31.2008 159.701 31.3008 159.301 31.5008C158.901 31.7008 158.601 32.1008 158.401 32.5008C158.201 32.9008 158.101 33.4008 158.101 34.0008C158.101 34.6008 158.201 35.1008 158.401 35.5008C158.601 35.9008 158.901 36.3008 159.301 36.5008C159.701 36.7008 160.101 36.8008 160.601 36.8008C161.001 36.9008 161.501 36.8008 161.901 36.5008Z" fill="white"/>
<path d="M167.401 36.8004H169.801V37.3004H166.801V30.7004H167.501V36.8004H167.401Z" fill="white"/>
<path d="M177.601 30.8008L175.101 37.4008H174.301L171.801 30.8008H172.501L174.701 36.7008L176.901 30.8008H177.601Z" fill="white"/>
<path d="M180.998 33.8002H183.498V34.3002H180.998V36.8002H183.798V37.3002H180.398V30.7002H183.798V31.2002H180.998V33.8002Z" fill="white"/>
</svg>
