<?xml version="1.0" encoding="UTF-8"?>
<svg version="1.1" xmlns="http://www.w3.org/2000/svg" width="246" height="241">
<path d="M0 0 C81.18 0 162.36 0 246 0 C246 79.53 246 159.06 246 241 C164.82 241 83.64 241 0 241 C0 161.47 0 81.94 0 0 Z " fill="#052466" transform="translate(0,0)"/>
<path d="M0 0 C0.94528564 0.29801514 0.94528564 0.29801514 1.90966797 0.60205078 C15.97270922 5.13140182 27.82588528 12.27732723 39 22 C39.90105469 22.77537109 39.90105469 22.77537109 40.8203125 23.56640625 C55.60933052 37.28923925 67.26547316 59.12933824 68.14526367 79.33642578 C68.16560978 82.57036373 68.18568285 85.80408416 68.18530273 89.03808594 C68.18747212 91.098523 68.20561437 93.15840857 68.22460938 95.21875 C68.27576035 106.63788183 67.21538563 117.22906455 62.9375 127.875 C62.48068848 129.020896 62.48068848 129.020896 62.01464844 130.18994141 C56.68760104 143.02571642 48.73353664 153.20920726 39 163 C38.3296875 163.71671875 37.659375 164.4334375 36.96875 165.171875 C20.4558156 181.55375437 -4.97007674 188.37866947 -27.5 188.5 C-38.50269675 188.41297778 -48.59699959 187.6383077 -59 184 C-60.04969971 183.64591064 -60.04969971 183.64591064 -61.12060547 183.28466797 C-84.00130893 175.36501364 -102.87567333 158.74952982 -113.94091797 137.16455078 C-115.98630342 132.88155738 -117.58320987 128.51938117 -119 124 C-119.20882812 123.34257812 -119.41765625 122.68515625 -119.6328125 122.0078125 C-126.89635465 98.01054032 -124.81872515 70.1813237 -113.40234375 47.87890625 C-99.7172744 23.40788248 -79.27973636 7.56389305 -52.5 -0.3125 C-36.10397571 -4.85205345 -16.28663673 -5.24417829 0 0 Z " fill="#FDF4EC" transform="translate(148,24)"/>
<path d="M0 0 C0.87438721 -0.00555908 1.74877441 -0.01111816 2.6496582 -0.0168457 C16.8966061 0.13942062 31.09237413 4.07961781 41.4375 14.3125 C53.74078489 28.43400433 59.6739928 44.52222546 58.4375 63.3125 C58.39496094 63.9936084 58.35242188 64.6747168 58.30859375 65.37646484 C57.1442311 82.4127325 52.19978422 99.18258121 39.4375 111.3125 C26.3570973 122.30972745 11.6260043 126.33926283 -5.16699219 125.53466797 C-20.38891763 124.12293212 -33.85553895 115.87743407 -43.5625 104.3125 C-52.6042374 91.67828658 -55.95385802 78.39806519 -55.875 63.0625 C-55.87081055 61.95583984 -55.86662109 60.84917969 -55.86230469 59.70898438 C-55.63014657 42.92444656 -50.83153191 27.37602036 -39.23828125 14.7890625 C-33.86685712 9.71277156 -28.43554982 6.02554598 -21.5625 3.3125 C-20.79164062 2.99410156 -20.02078125 2.67570312 -19.2265625 2.34765625 C-12.88959803 0.17869522 -6.631295 0.035418 0 0 Z " fill="#062566" transform="translate(119.5625,54.6875)"/>
<path d="M0 0 C4.68041792 2.76964937 7.64024893 6.5523183 9.6875 11.5625 C10.7529898 17.39586501 10.59542391 22.73993286 7.6875 28 C3.98220996 32.9438271 -0.04517371 36.02600766 -6.21484375 37.0390625 C-12.26286453 37.32887938 -16.75844677 36.67248282 -21.69140625 33.0625 C-25.67834494 29.37338083 -28.07363953 25.27611153 -28.55078125 19.85546875 C-28.701099 13.56585759 -28.7931707 9.39690786 -24.3125 4.5625 C-17.51226079 -1.93590092 -8.90204597 -3.78079173 0 0 Z " fill="#EF6F2D" transform="translate(131.3125,99.4375)"/>
<path d="M0 0 C14.85 0 29.7 0 45 0 C45 15.18 45 30.36 45 46 C42.80780549 43.80780549 42.29027033 42.38355636 41.25 39.5 C35.01287989 23.5987707 24.00734571 11.28185164 8.30932617 4.38378906 C5.55562615 3.2146048 2.78389415 2.09510534 0 1 C0 0.67 0 0.34 0 0 Z " fill="#E76C2F" transform="translate(176,21)"/>
</svg>
